<mxfile host="app.diagrams.net" modified="2021-07-10T04:52:44.299Z" agent="5.0 (Windows NT 10.0; WOW64) AppleWebKit/537.36 (KHTML, like Gecko) Chrome/91.0.4472.124 Safari/537.36" etag="vuZ0dmkSmZJADUEvuwIt" version="14.8.5" type="github">
  <diagram id="04vfkw8I1ufU1pshoL0u" name="Page-1">
    <mxGraphModel dx="1108" dy="482" grid="1" gridSize="10" guides="1" tooltips="1" connect="1" arrows="1" fold="1" page="1" pageScale="1" pageWidth="850" pageHeight="1100" math="0" shadow="0">
      <root>
        <mxCell id="0" />
        <mxCell id="1" parent="0" />
        <mxCell id="mh8gFpRunqPFwpEGASdI-1" value="" style="shape=ext;double=1;rounded=1;whiteSpace=wrap;html=1;" vertex="1" parent="1">
          <mxGeometry x="110" y="60" width="220" height="380" as="geometry" />
        </mxCell>
        <mxCell id="mh8gFpRunqPFwpEGASdI-4" value="" style="line;strokeWidth=2;html=1;" vertex="1" parent="1">
          <mxGeometry x="110" y="375" width="220" height="10" as="geometry" />
        </mxCell>
        <mxCell id="mh8gFpRunqPFwpEGASdI-5" value="" style="line;strokeWidth=2;html=1;" vertex="1" parent="1">
          <mxGeometry x="110" y="304" width="220" height="10" as="geometry" />
        </mxCell>
        <mxCell id="mh8gFpRunqPFwpEGASdI-6" value="" style="line;strokeWidth=2;html=1;" vertex="1" parent="1">
          <mxGeometry x="110" y="225" width="220" height="10" as="geometry" />
        </mxCell>
        <mxCell id="mh8gFpRunqPFwpEGASdI-7" value="" style="ellipse;shape=doubleEllipse;whiteSpace=wrap;html=1;aspect=fixed;" vertex="1" parent="1">
          <mxGeometry x="130" y="90" width="80" height="80" as="geometry" />
        </mxCell>
        <mxCell id="mh8gFpRunqPFwpEGASdI-8" value="" style="ellipse;shape=doubleEllipse;whiteSpace=wrap;html=1;aspect=fixed;" vertex="1" parent="1">
          <mxGeometry x="230" y="90" width="80" height="80" as="geometry" />
        </mxCell>
        <mxCell id="mh8gFpRunqPFwpEGASdI-9" value="" style="line;strokeWidth=2;direction=south;html=1;" vertex="1" parent="1">
          <mxGeometry x="165" y="170" width="10" height="60" as="geometry" />
        </mxCell>
        <mxCell id="mh8gFpRunqPFwpEGASdI-10" value="" style="line;strokeWidth=2;direction=south;html=1;" vertex="1" parent="1">
          <mxGeometry x="265" y="170" width="10" height="60" as="geometry" />
        </mxCell>
        <mxCell id="mh8gFpRunqPFwpEGASdI-12" value="" style="line;strokeWidth=2;html=1;" vertex="1" parent="1">
          <mxGeometry x="70" y="120" width="60" height="10" as="geometry" />
        </mxCell>
        <mxCell id="mh8gFpRunqPFwpEGASdI-13" value="" style="line;strokeWidth=2;html=1;" vertex="1" parent="1">
          <mxGeometry x="310" y="120" width="60" height="10" as="geometry" />
        </mxCell>
        <mxCell id="mh8gFpRunqPFwpEGASdI-14" value="POD" style="text;html=1;strokeColor=none;fillColor=#33FF33;align=center;verticalAlign=middle;whiteSpace=wrap;rounded=0;" vertex="1" parent="1">
          <mxGeometry x="30" y="115" width="40" height="20" as="geometry" />
        </mxCell>
        <mxCell id="mh8gFpRunqPFwpEGASdI-15" value="POD" style="text;html=1;strokeColor=none;fillColor=#33FF33;align=center;verticalAlign=middle;whiteSpace=wrap;rounded=0;" vertex="1" parent="1">
          <mxGeometry x="370" y="115" width="40" height="20" as="geometry" />
        </mxCell>
        <mxCell id="mh8gFpRunqPFwpEGASdI-16" value="C1&lt;span style=&quot;color: rgba(0 , 0 , 0 , 0) ; font-family: monospace ; font-size: 0px&quot;&gt;%3CmxGraphModel%3E%3Croot%3E%3CmxCell%20id%3D%220%22%2F%3E%3CmxCell%20id%3D%221%22%20parent%3D%220%22%2F%3E%3CmxCell%20id%3D%222%22%20value%3D%22POD%22%20style%3D%22text%3Bhtml%3D1%3BstrokeColor%3Dnone%3BfillColor%3Dnone%3Balign%3Dcenter%3BverticalAlign%3Dmiddle%3BwhiteSpace%3Dwrap%3Brounded%3D0%3B%22%20vertex%3D%221%22%20parent%3D%221%22%3E%3CmxGeometry%20x%3D%2230%22%20y%3D%22115%22%20width%3D%2240%22%20height%3D%2220%22%20as%3D%22geometry%22%2F%3E%3C%2FmxCell%3E%3C%2Froot%3E%3C%2FmxGraphModel%3E&lt;/span&gt;" style="text;html=1;strokeColor=none;fillColor=#33FFFF;align=center;verticalAlign=middle;whiteSpace=wrap;rounded=0;" vertex="1" parent="1">
          <mxGeometry x="150" y="115" width="40" height="20" as="geometry" />
        </mxCell>
        <mxCell id="mh8gFpRunqPFwpEGASdI-18" value="C2" style="text;html=1;strokeColor=none;fillColor=#33FFFF;align=center;verticalAlign=middle;whiteSpace=wrap;rounded=0;" vertex="1" parent="1">
          <mxGeometry x="250" y="115" width="40" height="20" as="geometry" />
        </mxCell>
        <mxCell id="mh8gFpRunqPFwpEGASdI-19" value="HARDWARE" style="text;html=1;strokeColor=none;fillColor=#97D077;align=center;verticalAlign=middle;whiteSpace=wrap;rounded=0;" vertex="1" parent="1">
          <mxGeometry x="180" y="400" width="70" height="20" as="geometry" />
        </mxCell>
        <mxCell id="mh8gFpRunqPFwpEGASdI-20" value="OS" style="text;html=1;strokeColor=none;fillColor=#97D077;align=center;verticalAlign=middle;whiteSpace=wrap;rounded=0;" vertex="1" parent="1">
          <mxGeometry x="200" y="330" width="40" height="20" as="geometry" />
        </mxCell>
        <mxCell id="mh8gFpRunqPFwpEGASdI-21" value="CRE ,K8S" style="text;html=1;strokeColor=none;fillColor=#97D077;align=center;verticalAlign=middle;whiteSpace=wrap;rounded=0;" vertex="1" parent="1">
          <mxGeometry x="180" y="260" width="90" height="20" as="geometry" />
        </mxCell>
      </root>
    </mxGraphModel>
  </diagram>
</mxfile>
